<?xml version="1.0" encoding="UTF-8"?>
<svg width="23px" height="37px" viewBox="0 0 23 37" version="1.1" xmlns="http://www.w3.org/2000/svg" xmlns:xlink="http://www.w3.org/1999/xlink">
    <!-- Generator: Sketch 49.3 (51167) - http://www.bohemiancoding.com/sketch -->
    <title>Group 2 Copy 2</title>
    <desc>Created with Sketch.</desc>
    <defs></defs>
    <g id="Page-1" stroke="none" stroke-width="1" fill="none" fill-rule="evenodd">
        <g id="Group-2-Copy-2" fill="#4A4A4A" fill-rule="nonzero">
            <path d="M11.953125,34.7908163 L17.109375,34.7908163 L17.109375,36.75 L5.390625,36.75 L5.390625,34.7908163 L10.078125,34.7908163 L10.078125,31.0541063 C4.84645385,30.4864924 0.631233009,26.1607951 0.0643713312,20.626391 C0.021559412,20.2084081 0,19.7866159 0,19.3622449 L1.875,19.3622449 C1.875,19.7169393 1.89300216,20.0691367 1.92872451,20.4179024 C2.43563523,25.3669912 6.44817746,29.1581633 11.25,29.1581633 C16.055069,29.1581633 20.0693435,25.3619933 20.5722049,20.4087878 C20.6073102,20.0629996 20.625,19.7138486 20.625,19.3622449 L22.5,19.3622449 C22.5,19.782915 22.478815,20.2010526 22.4367434,20.6154595 C21.8576936,26.3191233 17.4037492,30.7421297 11.953125,31.0946688 L11.953125,34.7908163 Z M11.25,26.2193878 C7.88451481,26.2193878 5.15625,23.3686294 5.15625,19.8520408 C5.15626269,19.7376102 5.15626269,19.7376102 5.15632601,19.2751369 C5.15641463,18.663416 5.15641463,18.663416 5.15655376,17.8029813 C5.15680504,16.2957815 5.15710895,14.7797555 5.15746294,13.3664034 C5.15861301,8.77471239 5.15954686,6.89822887 5.16195065,6.83981576 C5.30181573,3.44103797 7.98358543,0.75 11.25,0.75 C14.5022445,0.75 17.1770825,3.41847626 17.336296,6.80007157 C17.3394368,6.86677994 17.3406599,8.75117389 17.3421634,13.3493805 C17.3426265,14.765675 17.3430241,16.2850855 17.3433526,17.7944332 C17.3435346,18.6569913 17.3435346,18.6569913 17.3436505,19.2708392 C17.3437334,19.735436 17.3437334,19.735436 17.34375,19.8520408 C17.34375,23.3686294 14.6154852,26.2193878 11.25,26.2193878 Z M11.25,24.2602041 C13.5799513,24.2602041 15.46875,22.2866022 15.46875,19.8520408 C15.4687334,19.7358306 15.4687334,19.7358306 15.4686506,19.2712166 C15.4685346,18.6574005 15.4685346,18.6574005 15.4683526,17.7948787 C15.4680242,16.2856001 15.4676266,14.7662614 15.4671635,13.3500499 C15.4660328,9.89208069 15.4640958,6.90769983 15.4635609,6.89633967 C15.3534124,4.55685372 13.5013374,2.70918367 11.25,2.70918367 C8.98883237,2.70918367 7.13198915,4.5724442 7.03521967,6.92398132 C7.03481092,6.93391428 7.03332758,9.91455187 7.03246288,13.3669161 C7.0321089,14.7802047 7.031805,16.2961757 7.03155373,17.8033226 C7.0314146,18.6637296 7.0314146,18.6637296 7.03132599,19.2754265 C7.03126267,19.7379141 7.03126267,19.7379141 7.03125,19.8520408 C7.03125,22.2866022 8.92004871,24.2602041 11.25,24.2602041 Z" id="Combined-Shape"></path>
        </g>
    </g>
</svg>