<?xml version="1.0" encoding="UTF-8"?>
<svg width="130px" height="139px" viewBox="0 0 130 139" version="1.1" xmlns="http://www.w3.org/2000/svg" xmlns:xlink="http://www.w3.org/1999/xlink">
    <!-- Generator: Sketch 49.3 (51167) - http://www.bohemiancoding.com/sketch -->
    <title>Group 5 Copy 2</title>
    <desc>Created with Sketch.</desc>
    <defs></defs>
    <g id="Page-1" stroke="none" stroke-width="1" fill="none" fill-rule="evenodd">
        <g id="Group-5-Copy-2">
            <polygon id="Rectangle-6" fill="#3B3A3B" points="0 32 59 56.9805447 59 139 0 114.019455"></polygon>
            <polygon id="Rectangle-6-Copy" fill="#CACACA" points="59 56.8502024 130 36 130 118.149798 59 139"></polygon>
            <polygon id="Rectangle-6-Copy-2" fill="#FFFFFF" points="0 31.4545455 71.2903226 11 130 35.5454545 58.7096774 56"></polygon>
            <polygon id="Rectangle-6-Copy-3" fill="#4A4A4A" points="48 37.2040816 78.0809969 28 82 29.7959184 51.9190031 39"></polygon>
            <g id="Group-4" transform="translate(93.000000, 67.000000)" fill="#000000">
                <path d="M2.94,6.44827586 C4.56371716,6.44827586 6,4.8362069 6,3.22413793 C6,1.61206897 4.56371716,0 2.94,0 C1.31628284,0 0,1.17481756 0,2.95545977 C0,4.73610198 1.31628284,6.44827586 2.94,6.44827586 Z" id="Oval-4" transform="translate(3.000000, 3.224138) scale(-1, 1) translate(-3.000000, -3.224138) "></path>
                <polygon id="Path-3" points="2.4 5.83913301 2.4 11 4 10.5982267 4 5.31034483"></polygon>
            </g>
            <polygon id="Rectangle-7" fill="#D8D8D8" points="52 7.48314607 79 0 79 29.5168539 52 37"></polygon>
        </g>
    </g>
</svg>